<svg width="2684" height="318" viewBox="0 0 2684 318" fill="none" xmlns="http://www.w3.org/2000/svg">
<path d="M0.340911 313V4.63635H186.443V37.7614H37.6818V141.955H176.807V175.08H37.6818V279.875H188.852V313H0.340911ZM498.27 4.63635V313H462.134L294.099 70.8864H291.088V313H253.747V4.63635H289.884L458.52 247.352H461.531V4.63635H498.27ZM783.785 101C780.472 90.8617 776.106 81.7775 770.685 73.7472C765.365 65.6165 758.991 58.6903 751.563 52.9688C744.236 47.2472 735.904 42.8807 726.569 39.8693C717.234 36.8579 706.995 35.3523 695.853 35.3523C677.584 35.3523 660.971 40.0701 646.015 49.5057C631.058 58.9413 619.164 72.8438 610.33 91.2131C601.497 109.582 597.08 132.117 597.08 158.818C597.08 185.519 601.547 208.054 610.481 226.423C619.415 244.793 631.51 258.695 646.768 268.131C662.025 277.566 679.19 282.284 698.262 282.284C715.929 282.284 731.487 278.52 744.938 270.991C758.489 263.363 769.029 252.622 776.558 238.77C784.186 224.817 788.001 208.405 788.001 189.534L799.444 191.943H706.694V158.818H824.137V191.943C824.137 217.339 818.717 239.422 807.876 258.193C797.135 276.964 782.279 291.519 763.308 301.858C744.436 312.097 722.755 317.216 698.262 317.216C670.959 317.216 646.969 310.792 626.29 297.943C605.713 285.095 589.652 266.826 578.109 243.136C566.665 219.447 560.944 191.341 560.944 158.818C560.944 134.426 564.206 112.493 570.731 93.0199C577.356 73.446 586.691 56.7831 598.737 43.0312C610.782 29.2794 625.036 18.7396 641.498 11.4119C657.96 4.08427 676.078 0.420443 695.853 0.420443C712.114 0.420443 727.272 2.87972 741.325 7.79828C755.478 12.6165 768.076 19.4924 779.117 28.4261C790.259 37.2595 799.544 47.8494 806.972 60.196C814.4 72.4422 819.52 86.0436 822.33 101H783.785ZM888.091 313V4.63635H1074.19V37.7614H925.432V141.955H1064.56V175.08H925.432V279.875H1076.6V313H888.091ZM1386.02 4.63635V313H1349.88L1181.85 70.8864H1178.84V313H1141.5V4.63635H1177.63L1346.27 247.352H1349.28V4.63635H1386.02ZM1460.74 313V4.63635H1498.08V141.955H1662.5V4.63635H1699.84V313H1662.5V175.08H1498.08V313H1460.74ZM1787.25 313H1748.1L1861.33 4.63635H1899.87L2013.1 313H1973.95L1881.8 53.4204H1879.39L1787.25 313ZM1801.7 192.545H1959.5V225.67H1801.7V192.545ZM2061.13 313V4.63635H2165.32C2189.41 4.63635 2209.19 8.75188 2224.65 16.9829C2240.11 25.1136 2251.55 36.3059 2258.98 50.5597C2266.4 64.8134 2270.12 81.0246 2270.12 99.1932C2270.12 117.362 2266.4 133.473 2258.98 147.526C2251.55 161.579 2240.16 172.62 2224.8 180.651C2209.44 188.58 2189.82 192.545 2165.93 192.545H2081.61V158.818H2164.72C2181.18 158.818 2194.43 156.409 2204.47 151.591C2214.61 146.773 2221.94 139.947 2226.45 131.114C2231.07 122.18 2233.38 111.54 2233.38 99.1932C2233.38 86.8466 2231.07 76.0559 2226.45 66.821C2221.84 57.5862 2214.46 50.4593 2204.32 45.4403C2194.18 40.321 2180.78 37.7614 2164.12 37.7614H2098.47V313H2061.13ZM2206.28 174.477L2282.16 313H2238.8L2164.12 174.477H2206.28ZM2369.68 4.63635V313H2332.34V4.63635H2369.68ZM2457.2 313H2418.05L2531.28 4.63635H2569.82L2683.05 313H2643.9L2551.76 53.4204H2549.35L2457.2 313ZM2471.65 192.545H2629.45V225.67H2471.65V192.545Z" fill="#0D0D0D"/>
</svg>
