<svg width="41" height="32" viewBox="0 0 41 32" fill="none" xmlns="http://www.w3.org/2000/svg">
<rect width="41" height="32" fill="#1E1E1E"/>
<path d="M39.5177 8.43668L36.2548 8.47511L36.1853 5.85844C36.1842 5.26616 35.9172 4.17256 34.4699 4.14943C33.0225 4.1263 32.6735 5.25121 32.6316 5.8651C32.6713 9.77408 32.4759 17.5703 32.5907 18.4969C32.7547 19.8211 33.1438 20.5634 34.5006 20.5609C35.6544 20.5587 36.3075 19.3622 36.3061 18.6191L36.2977 14.1286L34.4886 14.132L34.4825 10.9014L39.5223 10.8919L39.537 18.7423C39.5425 21.6822 37.3498 23.8831 34.2482 23.7597C30.2671 23.6013 29.3323 20.8937 29.1991 18.7617L29.1751 5.9685C29.1612 4.29938 30.277 0.939613 34.4639 0.983449C38.6509 1.02728 39.5746 4.32292 39.513 5.94911L39.5177 8.43668Z" fill="#00394F" stroke="#00394F" stroke-width="0.0646122"/>
<path d="M16.9279 4.31164L16.9218 1.08104C16.9218 1.08104 22.6722 1.00099 24.0617 1.19686C25.4512 1.39273 26.7034 2.678 27.0384 3.58194C27.3733 4.48588 27.4627 5.90718 27.4645 6.84405C27.4662 7.78093 27.622 8.81447 27.1795 9.91368C26.5117 11.5722 25.2775 12.1141 25.0515 12.1791C25.7947 12.2746 27.0241 13.213 27.2527 14.5333C27.8716 17.2136 27.2648 20.987 27.6236 22.7669C27.754 23.4142 27.8835 23.5456 27.9807 23.7069L24.2978 23.7138C24.2978 23.7138 23.9415 23.1976 23.9385 21.6469C23.8074 20.6456 24.028 17.6408 23.8631 15.8927C23.6338 14.181 22.3736 14.0579 22.3736 14.0579L20.4676 14.0615L20.4613 10.7339C20.4613 10.7339 22.5617 10.9885 23.1422 10.4382C23.7227 9.88786 23.8827 9.11222 23.879 7.14155C23.8753 5.17088 23.5509 4.42844 22.1615 4.30182C20.7721 4.17521 16.9279 4.31164 16.9279 4.31164Z" fill="#DA3240" stroke="#DA3240" stroke-width="0.0646122"/>
<path d="M6.067 1.10126L0.962646 1.11084L1.03737 23.725L4.23567 23.719L4.2038 6.72603L6.78785 23.7142L9.76001 23.7087L12.3772 6.7107L12.4091 23.7037L15.7689 23.6974L15.7265 1.08314L10.6868 1.0926L8.39097 17.2177L6.067 1.10126Z" fill="#00394F" stroke="#00394F" stroke-width="0.0646122"/>
<path d="M0.93801 31.5991L0.930119 27.3928L3.63414 27.3878L3.63506 27.8805L1.49588 27.8845L1.49833 29.1884L3.45724 29.1848L3.45816 29.6775L1.49925 29.6812L1.50192 31.1053L3.6411 31.1013L3.64203 31.594L0.93801 31.5991ZM4.67018 31.5921L4.66229 27.3858L5.21511 27.3848L7.48061 30.6554L7.47447 27.3806L8.02729 27.3795L8.03518 31.5858L7.48236 31.5868L5.21686 28.3162L5.223 31.591L4.67018 31.5921ZM10.8926 31.6405C10.5642 31.6411 10.2596 31.5676 9.97887 31.4199C9.70218 31.2722 9.47942 31.0423 9.31058 30.7301C9.14174 30.414 9.05685 30.0075 9.05592 29.5108L9.0557 29.3906C9.05502 29.0301 9.10251 28.7195 9.19816 28.4589C9.29382 28.1984 9.42561 27.9838 9.59355 27.8152C9.76549 27.6467 9.96155 27.5221 10.1817 27.4416C10.4019 27.357 10.6362 27.3145 10.8845 27.3141C11.0888 27.3137 11.2792 27.3434 11.4555 27.4031C11.6319 27.4589 11.7903 27.5407 11.9307 27.6486C12.0711 27.7565 12.1895 27.8885 12.286 28.0445C12.3864 28.2006 12.4609 28.3767 12.5093 28.5729L11.9084 28.574C11.852 28.3979 11.7696 28.2538 11.6612 28.1418C11.5569 28.0299 11.4365 27.948 11.3002 27.8962C11.1679 27.8443 11.0297 27.8185 10.8855 27.8188C10.6692 27.8192 10.4669 27.8697 10.2789 27.9702C10.0908 28.0707 9.93885 28.2372 9.82311 28.4698C9.71138 28.6983 9.65587 29.0049 9.65659 29.3895L9.65681 29.5096C9.65739 29.8141 9.69392 30.0704 9.76642 30.2786C9.83892 30.4868 9.93337 30.6548 10.0498 30.7828C10.1702 30.9068 10.3026 30.9966 10.4469 31.0525C10.5952 31.1083 10.7435 31.136 10.8917 31.1357C11.116 31.1353 11.3102 31.0949 11.4743 31.0145C11.6424 30.93 11.7764 30.7996 11.8762 30.6231C11.98 30.4427 12.0417 30.2102 12.0612 29.9258L11.0096 29.9277L11.0087 29.447L12.6011 29.444L12.6014 29.6243C12.602 29.9488 12.5625 30.2373 12.4829 30.4898C12.4072 30.7383 12.2934 30.9488 12.1415 31.1214C11.9936 31.2899 11.8136 31.4184 11.6015 31.507C11.3933 31.5955 11.157 31.64 10.8926 31.6405ZM13.6015 31.5753L13.5937 27.3691L16.2977 27.364L16.2986 27.8567L14.1594 27.8607L14.1619 29.1647L16.1208 29.161L16.1217 29.6537L14.1628 29.6574L14.1655 31.0815L16.3046 31.0775L16.3056 31.5703L13.6015 31.5753ZM17.3337 31.5683L17.3258 27.3621L17.8786 27.361L20.1441 30.6317L20.138 27.3568L20.6908 27.3558L20.6987 31.562L20.1459 31.563L17.8804 28.2924L17.8865 31.5673L17.3337 31.5683ZM21.9637 31.5596L21.9558 27.3534L22.5206 27.3523L22.524 29.149L24.7593 29.1448L24.756 27.3481L25.3208 27.3471L25.3287 31.5533L24.7639 31.5544L24.7603 29.6375L22.5249 29.6417L22.5285 31.5586L21.9637 31.5596ZM26.113 31.5519L27.7155 27.3426L28.2803 27.3415L29.8986 31.5448L29.2857 31.5459L28.8811 30.5011L27.1025 30.5044L26.7018 31.5508L26.113 31.5519ZM27.2878 30.0114L28.6939 30.0087L27.9872 28.0632L27.2878 30.0114ZM30.6838 31.5433L30.6759 27.337L32.1481 27.3343C32.5006 27.3336 32.7932 27.3891 33.0257 27.5009C33.2623 27.6086 33.4408 27.7585 33.5614 27.9505C33.6819 28.1386 33.7424 28.3528 33.7428 28.5932C33.7434 28.8736 33.6597 29.1201 33.4919 29.3327C33.328 29.5413 33.0839 29.688 32.7596 29.7728L33.8685 31.5373L33.2016 31.5386L32.1949 29.8459L31.2455 29.8477L31.2487 31.5422L30.6838 31.5433ZM31.2446 29.367L32.0918 29.3654C32.4804 29.3647 32.7587 29.294 32.9267 29.1535C33.0947 29.009 33.1784 28.8226 33.178 28.5942C33.1776 28.3659 33.0931 28.1818 32.9246 28.0419C32.7561 27.898 32.4775 27.8264 32.0889 27.8271L31.2417 27.8287L31.2446 29.367ZM34.8927 31.5354L34.8848 27.3291L35.4497 27.3281L35.4575 31.5343L34.8927 31.5354ZM36.306 31.5327L37.9085 27.3235L38.4734 27.3224L40.0917 31.5256L39.4788 31.5268L39.0742 30.482L37.2955 30.4853L36.8949 31.5316L36.306 31.5327ZM37.4809 29.9922L38.887 29.9896L38.1803 28.044L37.4809 29.9922Z" fill="black"/>
<path d="M1.00861 25.5988L39.582 25.5264" stroke="black" stroke-width="0.258449"/>
</svg>
